# File created by Blade
# Date/Time:  Fri Jan 16 15:45:56 2015
#---------------------------------------------------------
:version 1.10
:name HOM
:units
  mass 1.0
  length 1.000000
  angle deg
:documentation
     Acclaim Skeleton File
:root
   axis xyz
   order TX TY TZ RX RY RZ
   position 0.000000 0.000000 0.000000
   orientation 0 0 0
:bonedata
   begin
      id 1
      name Spine_dum
      direction 0.000000 1.000000 0.000000
      length 7.170412
      axis 0.0 0.0 0.0 xyz
   end
   begin
      id 2
      name LeftUpLeg_dum
      direction 1.000000 0.000000 0.000000
      length 4.318350
      axis 0.0 0.0 0.0 xyz
   end
   begin
      id 3
      name RightUpLeg_dum
      direction -1.000000 0.000000 0.000000
      length 4.318350
      axis 0.0 0.0 0.0 xyz
   end
   begin
      id 4
      name Spine
      direction 0.000000 1.000000 0.000000
      length 0.000000
      axis 0.0 0.0 0.0 xyz
      dof rx ry rz
   end
   begin
      id 5
      name Spine_dum1
      direction 0.000000 1.000000 0.000000
      length 14.276153
      axis 0.0 0.0 0.0 xyz
   end
   begin
      id 6
      name Spine_dum2
      direction 0.000000 1.000000 0.000000
      length 10.718243
      axis 0.0 0.0 0.0 xyz
   end
   begin
      id 7
      name Spine_dum3
      direction 0.000000 1.000000 0.000000
      length 10.718243
      axis 0.0 0.0 0.0 xyz
   end
   begin
      id 8
      name Head
      direction 0.000000 1.000000 0.000000
      length 4.527550
      axis 0.0 0.0 0.0 xyz
      dof rx ry rz
   end
   begin
      id 9
      name LeftShoulder
      direction 1.000000 0.000000 0.000000
      length 7.058872
      axis 0.0 0.0 -90.0 xyz
      dof rx ry rz
   end
   begin
      id 10
      name LeftArm
      direction 1.000000 0.000000 0.000000
      length 10.955525
      axis 0.0 0.0 -90.0 xyz
      dof rx ry rz
   end
   begin
      id 11
      name LeftForeArm
      direction 1.000000 0.000000 0.000000
      length 8.193716
      axis 0.0 0.0 -90.0 xyz
      dof ry rz rx
   end
   begin
      id 12
      name LeftHand
      direction 0.000000 0.000000 0.000000
      length 0.000000
      axis 0.0 0.0 -90.0 xyz
      dof rx ry rz
   end
   begin
      id 13
      name LeftHand_dum1
      direction 0.000000 0.000000 0.000000
      length 0.000000
      axis 0.0 0.0 -90.0 xyz
   end
   begin
      id 14
      name LeftHand_dum2
      direction 1.000000 0.000000 0.000000
      length 3.937000
      axis 0.0 0.0 -90.0 xyz
   end
   begin
      id 15
      name LeftHandThumb1
      direction 0.000000 0.000000 1.000000
      length 3.937000
      axis 0.0 0.0 -90.0 xyz
      dof rx rz ry
   end
   begin
      id 16
      name RightShoulder
      direction -1.000000 0.000000 0.000000
      length 7.058872
      axis 0.0 0.0 90.0 xyz
      dof rx ry rz
   end
   begin
      id 17
      name RightArm
      direction -1.000000 0.000000 0.000000
      length 10.955525
      axis 0.0 0.0 90.0 xyz
      dof rx ry rz
   end
   begin
      id 18
      name RightForeArm
      direction -1.000000 0.000000 0.000000
      length 8.193716
      axis 0.0 0.0 90.0 xyz
      dof ry rz rx
   end
   begin
      id 19
      name RightHand
      direction 0.000000 0.000000 0.000000
      length 0.000000
      axis 0.0 0.0 90.0 xyz
      dof rx ry rz
   end
   begin
      id 20
      name RightHand_dum1
      direction 0.000000 0.000000 0.000000
      length 0.000000
      axis 0.0 0.0 90.0 xyz
   end
   begin
      id 21
      name RightHand_dum2
      direction -1.000000 0.000000 0.000000
      length 3.937000
      axis 0.0 0.0 90.0 xyz
   end
   begin
      id 22
      name RightHandThumb1
      direction 0.000000 0.000000 1.000000
      length 3.937000
      axis 0.0 0.0 90.0 xyz
      dof rx rz ry
   end
   begin
      id 23
      name LeftUpLeg
      direction 0.000000 -1.000000 0.000000
      length 17.323638
      axis 0.0 0.0 0.0 xyz
      dof rx ry rz
   end
   begin
      id 24
      name LeftLeg
      direction 0.000000 -1.000000 0.000000
      length 16.270368
      axis 0.0 0.0 0.0 xyz
      dof rx ry rz
   end
   begin
      id 25
      name LeftFoot
      direction 0.000000 -0.258819 0.965926
      length 4.922846
      axis 15.0 0.0 0.0 xyz
      dof rx ry rz
   end
   begin
      id 26
      name LeftToeBase
      direction 0.000000 0.000000 1.000000
      length 2.952750
      axis 0.0 0.0 0.0 xyz
      dof rx ry rz
   end
   begin
      id 27
      name RightUpLeg
      direction 0.000000 -1.000000 0.000000
      length 17.323638
      axis 0.0 0.0 0.0 xyz
      dof rx ry rz
   end
   begin
      id 28
      name RightLeg
      direction 0.000000 -1.000000 0.000000
      length 16.270368
      axis 0.0 0.0 0.0 xyz
      dof rx ry rz
   end
   begin
      id 29
      name RightFoot
      direction 0.000000 -0.258819 0.965926
      length 4.922846
      axis 15.0 0.0 0.0 xyz
      dof rx ry rz
   end
   begin
      id 30
      name RightToeBase
      direction 0.000000 0.000000 1.000000
      length 2.952750
      axis 0.0 0.0 0.0 xyz
      dof rx ry rz
   end
:hierarchy
   begin
      root Spine_dum LeftUpLeg_dum RightUpLeg_dum
      Spine_dum Spine
      LeftUpLeg_dum LeftUpLeg
      RightUpLeg_dum RightUpLeg
      Spine Spine_dum1 Spine_dum2 Spine_dum3
      Spine_dum1 Head
      Spine_dum2 LeftShoulder
      Spine_dum3 RightShoulder
      LeftShoulder LeftArm
      LeftArm LeftForeArm
      LeftForeArm LeftHand
      LeftHand LeftHand_dum1 LeftHand_dum2
      LeftHand_dum1 LeftHandThumb1
      RightShoulder RightArm
      RightArm RightForeArm
      RightForeArm RightHand
      RightHand RightHand_dum1 RightHand_dum2
      RightHand_dum1 RightHandThumb1
      LeftUpLeg LeftLeg
      LeftLeg LeftFoot
      LeftFoot LeftToeBase
      RightUpLeg RightLeg
      RightLeg RightFoot
      RightFoot RightToeBase
   end

# File created by Blade
# Date/Time:  Fri Jan 16 15:45:48 2015
# Frame Rate: 120.000 fps
#------------------------------------------------------
:FULLY-SPECIFIED
:DEGREES
2204
root -5.425401 35.269724 -9.624230 -1.672579 1.296398 -3.228075
Spine -3.158787 -1.924544 0.855831
Head -8.264808 -16.971412 -1.257939
LeftShoulder -17.904992 11.257724 -16.400937
LeftArm 20.514796 17.468956 -65.789648
LeftForeArm 15.488879 -0.000000 13.675010
LeftHand 2.396182 -0.000000 -9.053429
LeftHandThumb1 -26.253704 0.000000 33.147579
RightShoulder -8.677015 23.834161 -44.394806
RightArm 30.083451 40.094478 -2.615133
RightForeArm -11.661535 -0.000000 30.443151
RightHand 7.214735 -0.000000 -19.159171
RightHandThumb1 -24.326973 -0.000000 -32.862282
LeftUpLeg 10.598608 11.323462 4.915326
LeftLeg -8.805642 -0.000000 0.000000
LeftFoot -13.830422 22.540494 -11.453606
LeftToeBase 21.240869 -0.000000 -0.000000
RightUpLeg 9.923118 -9.488942 -0.584934
RightLeg -4.562503 -0.000000 0.000000
RightFoot -6.632372 -27.041064 6.765229
RightToeBase 12.529446 -0.000000 -0.000000
2205
root -5.427566 35.269574 -9.629098 -1.646473 1.277679 -3.245272
Spine -3.175519 -1.774940 0.822296
Head -8.379787 -17.095998 -1.236234
LeftShoulder -17.876850 11.255656 -16.410605
LeftArm 20.581454 17.552240 -65.716664
LeftForeArm 15.462170 -0.000000 13.780875
LeftHand 2.485098 0.000000 -8.937845
LeftHandThumb1 -26.253704 0.000000 33.147579
RightShoulder -8.661505 24.144169 -44.505986
RightArm 30.923889 41.663282 -0.289860
RightForeArm -9.155517 -0.000000 30.147536
RightHand 7.114740 0.000000 -20.128507
RightHandThumb1 -24.326973 -0.000000 -32.862282
LeftUpLeg 10.569189 11.335563 4.929964
LeftLeg -8.810294 -0.000000 0.000000
LeftFoot -13.831083 22.551546 -11.437208
LeftToeBase 21.257978 -0.000000 -0.000000
RightUpLeg 9.884435 -9.504726 -0.561337
RightLeg -4.560626 -0.000000 0.000000
RightFoot -6.606198 -27.029242 6.718233
RightToeBase 12.547606 -0.000000 -0.000000
2206
root -5.430282 35.269884 -9.634855 -1.620850 1.277170 -3.263146
Spine -3.194584 -1.633926 0.795644
Head -8.458854 -17.248824 -1.255260
LeftShoulder -17.817365 11.253639 -16.427889
LeftArm 20.633827 17.577576 -65.653753
LeftForeArm 15.470896 -0.000000 13.839419
LeftHand 2.606896 -0.000000 -8.967357
LeftHandThumb1 -26.253704 0.000000 33.147579
RightShoulder -8.660217 24.633602 -44.572710
RightArm 32.077323 43.237418 2.250974
RightForeArm -6.590636 -0.000000 29.788589
RightHand 7.180264 -0.000000 -20.971960
RightHandThumb1 -24.326973 -0.000000 -32.862282
LeftUpLeg 10.530742 11.338335 4.944722
LeftLeg -8.806648 -0.000000 0.000000
LeftFoot -13.821484 22.558280 -11.413346
LeftToeBase 21.239315 -0.000000 -0.000000
RightUpLeg 9.846506 -9.523600 -0.535597
RightLeg -4.556161 -0.000000 0.000000
RightFoot -6.600717 -27.005884 6.722455
RightToeBase 12.563975 -0.000000 -0.000000
2207
root -5.432490 35.269849 -9.640502 -1.581294 1.291735 -3.282418
Spine -3.227153 -1.494086 0.771031
Head -8.556878 -17.422448 -1.285465
LeftShoulder -17.763178 11.261262 -16.435739
LeftArm 20.680358 17.679097 -65.571584
LeftForeArm 15.402378 -0.000000 13.943767
LeftHand 2.635012 -0.000000 -8.973766
LeftHandThumb1 -26.253704 0.000000 33.147579
RightShoulder -8.763066 24.963498 -44.732207
RightArm 33.540577 45.042601 5.284560
RightForeArm -4.324926 -0.000000 29.560490
RightHand 6.439240 -0.000000 -22.166467
RightHandThumb1 -24.326973 -0.000000 -32.862282
LeftUpLeg 10.485437 11.331700 4.957062
LeftLeg -8.823913 -0.000000 0.000000
LeftFoot -13.819274 22.572417 -11.377638
LeftToeBase 21.292593 -0.000000 -0.000000
RightUpLeg 9.801454 -9.537037 -0.503397
RightLeg -4.565917 -0.000000 0.000000
RightFoot -6.586181 -27.023526 6.728523
RightToeBase 12.514926 -0.000000 -0.000000
2208
root -5.434845 35.269425 -9.646963 -1.533274 1.326612 -3.297693
Spine -3.265808 -1.352441 0.743268
Head -8.665985 -17.613689 -1.331424
LeftShoulder -17.681047 11.275959 -16.436349
LeftArm 20.729747 17.794822 -65.482551
LeftForeArm 15.314648 -0.000000 14.010658
LeftHand 2.679903 -0.000000 -9.017611
LeftHandThumb1 -26.253704 0.000000 33.147579
RightShoulder -8.936221 25.511599 -45.002750
RightArm 35.060066 46.387877 8.345610
RightForeArm -1.716209 -0.000000 29.341681
RightHand 4.651501 -0.000000 -24.612088
RightHandThumb1 -24.326973 -0.000000 -32.862282
LeftUpLeg 10.416973 11.310687 4.961959
LeftLeg -8.824931 -0.000000 0.000000
LeftFoot -13.808685 22.576724 -11.351221
LeftToeBase 21.283297 -0.000000 -0.000000
RightUpLeg 9.748583 -9.568473 -0.474591
RightLeg -4.571444 -0.000000 0.000000
RightFoot -6.569925 -27.036537 6.720859
RightToeBase 12.524903 -0.000000 -0.000000
2209
root -5.435266 35.266632 -9.652305 -1.483645 1.383734 -3.316505
Spine -3.321631 -1.258475 0.712693
Head -8.711967 -17.736758 -1.333882
LeftShoulder -17.655854 11.264616 -16.406339
LeftArm 20.758634 17.895368 -65.474350
LeftForeArm 15.342919 -0.000000 14.045047
LeftHand 2.693620 0.000000 -9.020530
LeftHandThumb1 -26.253704 0.000000 33.147579
RightShoulder -9.040549 26.328039 -45.493921
RightArm 36.661129 48.011324 12.203861
RightForeArm 0.407997 0.000000 29.365236
RightHand 4.661999 -0.000000 -25.508976
RightHandThumb1 -24.326973 -0.000000 -32.862282
LeftUpLeg 10.355369 11.265099 4.966965
LeftLeg -8.846608 -0.000000 0.000000
LeftFoot -13.814726 22.591728 -11.281527
LeftToeBase 21.390206 -0.000000 -0.000000
RightUpLeg 9.704396 -9.609013 -0.445289
RightLeg -4.586786 -0.000000 0.000000
RightFoot -6.569531 -27.058762 6.700701
RightToeBase 12.543232 -0.000000 -0.000000
2210
root -5.438070 35.264688 -9.658212 -1.431899 1.449712 -3.329569
Spine -3.353362 -1.159339 0.666217
Head -8.807788 -17.901959 -1.334417
LeftShoulder -17.635342 11.228745 -16.369775
LeftArm 20.802486 18.057591 -65.416448
LeftForeArm 15.338313 0.000000 14.067636
LeftHand 2.722534 -0.000000 -9.012419
LeftHandThumb1 -26.253704 0.000000 33.147579
RightShoulder -9.226836 26.572865 -45.636141
RightArm 38.984604 49.867924 15.971042
RightForeArm 2.969951 -0.000000 28.883350
RightHand 4.161911 -0.000000 -27.401346
RightHandThumb1 -24.326973 -0.000000 -32.862282
LeftUpLeg 10.288900 11.245007 4.970433
LeftLeg -8.872587 -0.000000 0.000000
LeftFoot -13.779503 22.580152 -11.215645
LeftToeBase 21.343616 -0.000000 -0.000000
RightUpLeg 9.659915 -9.634498 -0.414688
RightLeg -4.608173 -0.000000 0.000000
RightFoot -6.564206 -27.103367 6.685227
RightToeBase 12.541313 -0.000000 -0.000000
2211
root -5.439453 35.263443 -9.663365 -1.377279 1.524134 -3.341969
Spine -3.407383 -1.073671 0.649511
Head -8.872748 -18.043781 -1.380009
LeftShoulder -17.611382 11.190620 -16.361292
LeftArm 20.814517 18.203513 -65.359002
LeftForeArm 15.353779 0.000000 14.081961
LeftHand 2.694007 -0.000000 -9.086155
LeftHandThumb1 -26.253704 0.000000 33.147579
RightShoulder -9.441389 26.907551 -45.834692
RightArm 41.689343 51.623309 20.144736
RightForeArm 5.438551 -0.000000 28.291898
RightHand 4.506017 0.000000 -28.734759
RightHandThumb1 -24.326973 -0.000000 -32.862282
LeftUpLeg 10.221232 11.197173 4.968792
LeftLeg -8.900475 -0.000000 0.000000
LeftFoot -13.753579 22.583242 -11.162794
LeftToeBase 21.367430 -0.000000 -0.000000
RightUpLeg 9.615758 -9.653865 -0.386062
RightLeg -4.628349 -0.000000 0.000000
RightFoot -6.561870 -27.151940 6.685318
RightToeBase 12.548407 -0.000000 -0.000000
2212
root -5.441118 35.261939 -9.669135 -1.314682 1.617270 -3.356086
Spine -3.462840 -0.992627 0.632370
Head -8.947100 -18.171422 -1.399867
LeftShoulder -17.586205 11.184529 -16.356391
LeftArm 20.862099 18.303226 -65.309582
LeftForeArm 15.472103 -0.000000 14.069219
LeftHand 2.577112 0.000000 -9.405543
LeftHandThumb1 -26.253704 0.000000 33.147579
RightShoulder -9.739918 27.183062 -46.031389
RightArm 44.833897 53.203132 24.655964
RightForeArm 7.758335 -0.000000 27.824661
RightHand 4.458989 -0.000000 -29.824216
RightHandThumb1 -24.326973 -0.000000 -32.862282
LeftUpLeg 10.142973 11.159678 4.970355
LeftLeg -8.934602 -0.000000 0.000000
LeftFoot -13.725643 22.559748 -11.109648
LeftToeBase 21.450361 -0.000000 -0.000000
RightUpLeg 9.564158 -9.703137 -0.355640
RightLeg -4.647864 -0.000000 0.000000
RightFoot -6.566289 -27.191998 6.691397
RightToeBase 12.550587 -0.000000 -0.000000
2213
root -5.443301 35.260910 -9.675269 -1.247315 1.730514 -3.367561
Spine -3.528324 -0.944987 0.614763
Head -9.018490 -18.291084 -1.461137
LeftShoulder -17.579805 11.145299 -16.340400
LeftArm 20.885975 18.416865 -65.267559
LeftForeArm 15.555743 -0.000000 14.028991
LeftHand 2.571385 -0.000000 -9.480352
LeftHandThumb1 -26.253704 0.000000 33.147579
RightShoulder -10.020995 27.468457 -46.256845
RightArm 48.279420 54.704515 29.482999
RightForeArm 10.151560 -0.000000 27.342979
RightHand 3.774701 -0.000000 -31.543802
RightHandThumb1 -24.326973 -0.000000 -32.862282
LeftUpLeg 10.046564 11.116995 4.969270
LeftLeg -8.951706 -0.000000 0.000000
LeftFoot -13.682548 22.516745 -11.031387
LeftToeBase 21.448958 -0.000000 -0.000000
RightUpLeg 9.514440 -9.748496 -0.323306
RightLeg -4.678669 -0.000000 0.000000
RightFoot -6.556832 -27.253652 6.706258
RightToeBase 12.593950 -0.000000 -0.000000
2214
root -5.445131 35.259616 -9.680507 -1.186025 1.847435 -3.376454
Spine -3.588276 -0.898982 0.601297
Head -9.123655 -18.490842 -1.530261
LeftShoulder -17.558643 11.140551 -16.334950
LeftArm 20.917744 18.499049 -65.220597
LeftForeArm 15.526521 -0.000000 14.007127
LeftHand 2.708482 -0.000000 -9.077596
LeftHandThumb1 -26.253704 0.000000 33.147579
RightShoulder -10.335867 27.643227 -46.442938
RightArm 52.188483 56.026728 34.557352
RightForeArm 12.239859 0.000000 26.646572
RightHand 3.533944 0.000000 -33.345347
RightHandThumb1 -24.326973 -0.000000 -32.862282
LeftUpLeg 9.961441 11.055009 4.963300
LeftLeg -8.978279 -0.000000 0.000000
LeftFoot -13.668368 22.498192 -10.984237
LeftToeBase 21.542660 -0.000000 -0.000000
RightUpLeg 9.477028 -9.775400 -0.297082
RightLeg -4.713602 -0.000000 0.000000
RightFoot -6.553613 -27.315969 6.715965
RightToeBase 12.565072 -0.000000 -0.000000
2215
root -5.447072 35.258523 -9.685909 -1.126521 1.984078 -3.389639
Spine -3.649434 -0.876763 0.584870
Head -9.179202 -18.629315 -1.548506
LeftShoulder -17.542816 11.116634 -16.327042
LeftArm 20.936941 18.558209 -65.183115
LeftForeArm 15.606701 0.000000 13.930143
LeftHand 2.772430 -0.000000 -9.121856
LeftHandThumb1 -26.253704 0.000000 33.147579
RightShoulder -10.604134 27.811068 -46.582628
RightArm 56.077211 57.100369 39.486790
RightForeArm 14.632266 -0.000000 25.892514
RightHand 3.450327 0.000000 -35.250620
RightHandThumb1 -24.326973 -0.000000 -32.862282
LeftUpLeg 9.875747 10.965926 4.960869
LeftLeg -9.008732 -0.000000 0.000000
LeftFoot -13.635628 22.494268 -10.922462
LeftToeBase 21.548718 -0.000000 -0.000000
RightUpLeg 9.442004 -9.837118 -0.263615
RightLeg -4.750064 -0.000000 0.000000
RightFoot -6.559851 -27.399448 6.756934
RightToeBase 12.544209 -0.000000 -0.000000
